<svg xmlns="http://www.w3.org/2000/svg" width="24" height="24" viewBox="0 0 24 24" fill="none"><path fill="#0F172A" fill-rule="nonzero" d="M8.5 5.1L8.5 10.5A3.5 3.5 0 0 0 12 14L12 14A3.5 3.5 0 0 0 15.5 10.5L15.5 5.1A3.5 3.5 0 0 0 12 1.6L12 1.6A3.5 3.5 0 0 0 8.5 5.1ZM10.7 5.1A1.3 1.3 0 0 1 12 3.8L12 3.8A1.3 1.3 0 0 1 13.3 5.1L13.3 10.5A1.3 1.3 0 0 1 12 11.8L12 11.8A1.3 1.3 0 0 1 10.7 10.5ZM4.9 11.2A7.1 7.1 0 0 0 19.1 11.2L16.9 11.2A4.9 4.9 0 0 1 7.1 11.2ZM10.9 17.2L10.9 20.4A1.1 1.1 0 0 0 13.1 20.4L13.1 17.2A1.1 1.1 0 0 0 10.9 17.2ZM8.4 22.6L15.6 22.6A1.1 1.1 0 0 0 15.6 20.4L8.4 20.4A1.1 1.1 0 0 0 8.4 22.6Z"/></svg>